<svg xmlns="http://www.w3.org/2000/svg" xmlns:xlink="http://www.w3.org/1999/xlink" width="500" zoomAndPan="magnify" viewBox="0 0 375 374.999991" height="500" preserveAspectRatio="xMidYMid meet" version="1.2"><defs/><g id="9fc0a977f4"><rect x="0" width="375" y="0" height="374.999991" style="fill:#ffffff;fill-opacity:1;stroke:none;"/><rect x="0" width="375" y="0" height="374.999991" style="fill:#f6f4f0;fill-opacity:1;stroke:none;"/><g style="fill:#222222;fill-opacity:1;"><g transform="translate(115.28941, 258.264269)"><path style="stroke:none" d="M 8.8125 0 L 46.28125 -61.65625 C 39.59375 -64.382812 33.859375 -68.035156 29.078125 -72.609375 C 24.304688 -77.179688 20.585938 -82.675781 17.921875 -89.09375 C 15.253906 -95.507812 13.921875 -102.742188 13.921875 -110.796875 L 13.921875 -143.375 L 48.328125 -143.375 L 48.328125 -108.75 C 48.328125 -105.207031 49.046875 -101.898438 50.484375 -98.828125 C 51.921875 -95.753906 53.96875 -93.226562 56.625 -91.25 C 59.289062 -89.269531 62.398438 -88.003906 65.953125 -87.453125 L 99.125 -143.375 L 137.421875 -143.375 L 99.953125 -82.953125 C 107.460938 -80.765625 114.015625 -77.347656 119.609375 -72.703125 C 125.210938 -68.066406 129.515625 -62.367188 132.515625 -55.609375 C 135.515625 -48.847656 137.015625 -41.234375 137.015625 -32.765625 L 137.015625 0 L 102.609375 0 L 102.609375 -34.40625 C 102.609375 -40.550781 100.695312 -45.773438 96.875 -50.078125 C 93.050781 -54.378906 87.726562 -56.597656 80.90625 -56.734375 L 47.109375 0 Z M 8.8125 0 "/></g></g></g></svg>